<?xml version="1.0" encoding="UTF-8" standalone="no"?>
<svg
   xmlns:dc="http://purl.org/dc/elements/1.1/"
   xmlns:cc="http://creativecommons.org/ns#"
   xmlns:rdf="http://www.w3.org/1999/02/22-rdf-syntax-ns#"
   xmlns:svg="http://www.w3.org/2000/svg"
   xmlns="http://www.w3.org/2000/svg"
   xmlns:sodipodi="http://sodipodi.sourceforge.net/DTD/sodipodi-0.dtd"
   xmlns:inkscape="http://www.inkscape.org/namespaces/inkscape"
   id="svg"
   version="1.1"
   width="400"
   height="320"
   viewBox="0, 0, 400,320"
   sodipodi:docname="flamefactory.svg"
   inkscape:version="1.0 (6e3e5246a0, 2020-05-07)"
   inkscape:export-filename="/home/hm/Desktop/flamefactory/flamefactory-512.png"
   inkscape:export-xdpi="282.33737"
   inkscape:export-ydpi="282.33737">
  <metadata
     id="metadata931">
    <rdf:RDF>
      <cc:Work
         rdf:about="">
        <dc:format>image/svg+xml</dc:format>
        <dc:type
           rdf:resource="http://purl.org/dc/dcmitype/StillImage" />
      </cc:Work>
    </rdf:RDF>
  </metadata>
  <defs
     id="defs929" />
  <sodipodi:namedview
     inkscape:document-rotation="0"
     pagecolor="#ffffff"
     bordercolor="#666666"
     borderopacity="1"
     objecttolerance="10"
     gridtolerance="10"
     guidetolerance="10"
     inkscape:pageopacity="0"
     inkscape:pageshadow="2"
     inkscape:window-width="1920"
     inkscape:window-height="1016"
     id="namedview927"
     showgrid="false"
     inkscape:zoom="2.71875"
     inkscape:cx="223.42893"
     inkscape:cy="156.79015"
     inkscape:window-x="1920"
     inkscape:window-y="27"
     inkscape:window-maximized="1"
     inkscape:current-layer="svg" />
  <g
     id="svgg">
    <path
       id="path0"
       d="m 220.529,127.007 c -3.898,0.49 -6.71,1.747 -7.18,3.21 -0.248,0.772 -2.728,30.066 -2.616,30.906 0.051,0.389 0.015,0.914 -0.082,1.167 -0.096,0.253 -0.314,2.001 -0.485,3.884 -0.555,6.15 -0.743,6.032 -1.335,-0.841 -0.186,-2.154 -0.387,-4.066 -0.447,-4.25 -0.115,-0.353 -0.133,-0.603 -0.282,-3.954 -0.104,-2.35 -0.313,-3.068 -1.048,-3.591 -2.558,-1.821 -10.615,-1.706 -12.616,0.181 -0.739,0.697 -0.602,-0.353 -1.83,14.096 -1.182,13.917 -0.941,12.679 -2.533,13.035 -1.459,0.326 -1.408,0.439 -1.408,-3.16 0,-4.082 0.474,-3.596 -4.834,-4.948 -6.448,-1.643 -5.956,-1.462 -6.174,-2.272 -0.103,-0.379 -0.14,-0.937 -0.083,-1.24 0.164,-0.873 -0.195,-1.079 -3.078,-1.766 -5.911,-1.408 -6.83,-1.549 -7.998,-1.232 -0.504,0.137 -1.779,0.402 -2.833,0.589 -4.528,0.803 -6.146,1.441 -5.821,2.295 0.187,0.493 -0.092,1.587 -0.497,1.951 -0.146,0.131 -2.366,0.773 -4.932,1.427 -5.722,1.457 -5.538,1.389 -5.748,2.151 -0.153,0.557 -0.296,0.667 -1.793,1.382 -3.261,1.559 -5.339,3.872 -6.566,7.306 l -0.387,1.084 -0.086,12.533 c -0.064,9.203 -0.139,12.585 -0.281,12.727 -0.106,0.107 -1.254,0.487 -2.549,0.844 -3.025,0.835 -3.549,1.082 -3.675,1.729 -0.053,0.275 -0.117,6.424 -0.143,13.664 -0.031,8.878 -0.104,13.233 -0.222,13.375 -0.128,0.155 -0.919,0.211 -2.967,0.211 -3.5,0 -3.184,-0.415 -3.128,4.104 l 0.045,3.646 H 200 275.083 l 0.045,-3.646 c 7.9e-4,-4.10862 0.0356,-4.08264 -3.115,-4.104 -2.98727,-0.0203 0,0 -2.98727,-0.0203 -0.42925,-27.86989 0,0 -0.42673,-25.95075 -0.0513,-2.05357 0.0102,-2.10641 -2.046,-2.597 -3.078,-0.767 -4.037,-1.091 -4.217,-1.427 -0.11,-0.206 -0.17,-4.513 -0.172,-12.286 -0.003,-13.356 0.021,-13.041 -1.159,-15.469 -3.962,-8.151 -15.034,-9.09 -20.435,-1.731 -1.133,1.542 -1.057,1.815 -1.735,-6.269 -0.601,-7.159 -2.041,-24.124 -2.505,-29.5 -0.182,-2.108 -0.522,-6.076 -0.755,-8.816 -0.52,-6.097 -0.614,-6.314 -3.176,-7.34 -2.507,-1.003 -8.309,-1.535 -11.87,-1.087 m 3.453,3.388 c 0.135,0.163 0.177,1.846 0.145,5.875 l -0.044,5.647 -0.75,0.222 c -2.584,0.765 -6.129,2.954 -5.616,3.467 0.051,0.05 0.979,-0.033 2.062,-0.185 1.084,-0.153 2.496,-0.254 3.138,-0.224 l 1.166,0.053 v 6.482 c 0,5.593 -0.034,6.499 -0.25,6.612 -0.137,0.071 -0.775,0.248 -1.416,0.392 -2.371,0.532 -6.468,3.102 -5.882,3.688 0.042,0.042 0.79,-0.073 1.662,-0.255 2.01,-0.419 5.057,-0.691 5.569,-0.496 l 0.386,0.147 0.08,6.715 c 0.044,3.693 0.082,6.903 0.085,7.132 0.05,3.667 -0.261,8.584 -0.547,8.639 -0.668,0.128 -11.122,-2.678 -11.347,-3.046 -0.194,-0.318 0.365,-8.618 1.073,-15.927 0.084,-0.871 0.756,-8.596 1.494,-17.166 1.514,-17.597 1.401,-16.588 1.895,-16.912 1.149,-0.753 6.634,-1.418 7.097,-0.86 m -23.411,24.2 c 0.282,0.282 0.401,6.762 0.133,7.184 -0.069,0.108 -0.554,0.357 -1.079,0.553 -1.075,0.402 -2.483,1.298 -2.595,1.652 -0.062,0.195 0.206,0.214 1.629,0.116 2.347,-0.162 2.174,-0.498 2.174,4.233 0,4.407 0.066,4.168 -1.23,4.484 -2.207,0.539 -4.479,2.416 -2.561,2.116 3.58,-0.56 3.824,-0.446 3.756,1.759 l -0.048,1.558 -0.667,0.149 c -0.366,0.082 -1.82,0.432 -3.229,0.778 -2.836,0.696 -3.021,0.691 -3.021,-0.079 0,-1.594 2.009,-23.657 2.172,-23.853 0.265,-0.32 1.147,-0.585 2.457,-0.737 1.708,-0.199 1.828,-0.194 2.109,0.087 m -33.104,17.272 c 0.323,0.323 0.283,12.859 -0.043,13.185 -0.133,0.133 -1.415,0.532 -2.848,0.885 -3.003,0.741 -2.949,0.756 -3.138,-0.853 -0.404,-3.437 -2.949,-6.939 -6.306,-8.675 -2.323,-1.202 -2.685,-0.993 5.285,-3.044 7.294,-1.876 6.781,-1.767 7.05,-1.498 m -14.893,7.66 c 3.007,1.006 5.093,3.864 5.093,6.976 0,1.181 -0.092,1.233 -3.75,2.167 -1.834,0.468 -3.457,0.887 -3.608,0.93 -0.751,0.214 -0.809,-0.163 -0.809,-5.267 0,-5.988 -0.081,-5.862 3.074,-4.806 m 100.507,-0.002 c 2.051,0.676 3.829,2.315 4.61,4.251 l 0.392,0.974 v 11.833 11.834 l -0.442,0.051 c -0.243,0.028 -0.876,-0.063 -1.408,-0.201 -1.41,-0.369 -1.4,-0.391 -1.4,2.883 0,2.862 -0.139,3.517 -0.747,3.517 -0.763,0 -0.753,0.161 -0.753,-11.417 0,-11.062 -0.017,-11.417 -0.563,-11.417 -0.114,0 -9.267,-2.369 -9.728,-2.517 -1.187,-0.383 -0.875,-4.578 0.501,-6.75 1.864,-2.94 5.919,-4.233 9.538,-3.041 m -106.614,0.508 c 0.344,0.345 0.283,34.026 -0.062,34.372 -0.909,0.908 -1.238,0.042 -1.238,-3.255 0,-3.258 0.002,-3.253 -1.343,-2.895 -1.035,0.275 -1.763,0.313 -1.895,0.098 -0.05,-0.081 -0.099,-5.275 -0.108,-11.542 -0.019,-12.694 -0.042,-12.408 1.152,-14.269 1.04,-1.621 2.985,-3.017 3.494,-2.509 m 53.55,16.598 c 0.034,31.256 -0.036,46.441 -0.216,46.658 -0.339,0.408 -49.909,0.298 -50.128,-0.111 -0.346,-0.645 -0.229,-48.409 0.119,-48.813 0.23,-0.267 3.884,-1.26 17.291,-4.7 9.35,-2.399 18.763,-4.815 20.917,-5.369 10.564,-2.718 11.418,-2.92 11.708,-2.769 0.275,0.142 0.293,1.042 0.309,15.104 m -10.6,-4.346 c -5.201,1.187 -4.75,0.819 -4.75,3.872 0,3.562 -0.474,3.331 4.509,2.194 1.966,-0.448 3.819,-0.867 4.117,-0.93 0.994,-0.21 1.04,-0.349 1.04,-3.15 0,-2.586 -0.084,-2.961 -0.658,-2.918 -0.142,0.01 -2.058,0.43 -4.258,0.932 m 21.138,-0.032 c 5.411,1.236 4.778,0.71 4.778,3.973 0,3.433 0.212,3.244 -2.843,2.538 -1.323,-0.306 -3.288,-0.759 -4.366,-1.006 -1.078,-0.248 -2.072,-0.563 -2.208,-0.7 -0.261,-0.26 -0.386,-5.366 -0.138,-5.614 0.204,-0.204 0.728,-0.115 4.777,0.809 m -37.388,3.757 c -5.074,1.181 -4.667,0.838 -4.667,3.925 0,2.716 0.04,2.898 0.643,2.899 0.625,0.002 8.564,-1.834 8.815,-2.039 0.289,-0.234 0.296,-5.307 0.009,-5.595 -0.264,-0.264 0.037,-0.315 -4.8,0.81 m 53.48,-0.077 c 5.339,1.215 4.853,0.81 4.853,4.05 0,2.033 -0.053,2.687 -0.228,2.832 -0.254,0.211 -8.774,-1.638 -9.207,-1.997 -0.245,-0.203 -0.356,-5.472 -0.121,-5.707 0.19,-0.189 0.481,-0.138 4.703,0.822 m -69.564,3.751 c -5.105,1.203 -4.75,0.913 -4.747,3.876 0.002,2.35 0.074,2.87 0.414,3 0.351,0.135 8.791,-1.863 9.076,-2.148 0.375,-0.375 0.381,-5.346 0.007,-5.582 -0.326,-0.207 0.014,-0.268 -4.75,0.854 m 85.849,-0.015 c 2.972,0.689 4.383,1.089 4.526,1.281 0.303,0.407 0.29,5.041 -0.014,5.457 -0.231,0.316 -8.897,-1.461 -9.355,-1.918 -0.246,-0.245 -0.329,-5.041 -0.095,-5.478 0.244,-0.455 0.009,-0.486 4.938,0.658 m -53.908,4.327 c -2.361,0.557 -4.121,1.055 -4.206,1.19 -0.29,0.457 -0.185,5.478 0.117,5.594 0.34,0.13 8.519,-1.726 9.023,-2.048 0.375,-0.24 0.595,-4.631 0.274,-5.468 -0.155,-0.404 -0.77,-0.317 -5.208,0.732 m 21.689,-0.081 c 5.186,1.192 4.62,0.693 4.62,4.081 0,3.215 0.063,3.097 -1.449,2.758 -4.462,-0.999 -7.94,-1.907 -8.065,-2.106 -0.17,-0.268 -0.208,-5.37 -0.041,-5.537 0.224,-0.224 1.053,-0.089 4.935,0.804 m -37.697,3.742 c -2.988,0.705 -4.127,1.042 -4.292,1.267 -0.46883,1.95931 -2.26475,5.81094 0.14988,5.57664 1.16655,-0.20409 6.82341,-1.41067 9.14512,-2.18964 0.081,-0.125 0.128,-1.428 0.106,-2.894 l -0.042,-2.667 -0.5,-0.027 c -0.275,-0.015 -2.33,0.405 -4.567,0.934 m 53.959,-0.014 c 2.324,0.536 4.282,1.066 4.351,1.179 0.404,0.654 0.344,5.33 -0.074,5.676 -0.139,0.116 -1.281,-0.087 -3.685,-0.655 -1.916,-0.452 -3.995,-0.916 -4.619,-1.03 -1.342,-0.246 -1.53,-0.466 -1.288,-1.515 0.091,-0.393 0.167,-1.546 0.169,-2.562 0.006,-2.511 -0.522,-2.399 5.146,-1.093 m -70.045,3.702 c -2.284,0.538 -4.234,1.059 -4.333,1.158 -0.253,0.252 -0.343,4.871 -0.103,5.319 0.261,0.489 0.553,0.453 5.17,-0.626 4.855,-1.134 4.497,-0.824 4.5,-3.893 0.004,-3.468 0.46,-3.298 -5.234,-1.958 m 86.068,-0.035 c 5.083,1.176 4.669,0.817 4.669,4.043 0,2.589 -0.145,3.109 -0.81,2.91 -0.15,-0.046 -2.111,-0.499 -4.357,-1.007 -5.031,-1.139 -4.667,-0.83 -4.667,-3.952 0,-3.486 -0.482,-3.3 5.165,-1.994"
       stroke="none"
       fill="#152535"
       fill-rule="evenodd"
       sodipodi:nodetypes="csccccccccccscccccccccccccccccccscccccscccccccccccccccsccccsccscscsccccccccccccscsscccsccccsccccccsccsccccccccsssscccccscccsccccssccccsccscccscccsccscccccscccccccsccccsccccccccccsccsccccccccccccccccccccccccsccsc" />
    <path
       id="path2"
       d="m 224.234,74.605 c -0.832,0.832 -1.406,1.575 -1.66,2.151 -0.214,0.484 -0.46,0.924 -0.547,0.977 -0.761,0.471 -1.49,4.201 -1.194,6.114 0.473,3.063 0.36,3.82 -0.573,3.82 -1.149,0 -1.614,-0.896 -1.747,-3.362 -0.109,-2.016 -0.215,-2.24 -0.762,-1.605 -1.365,1.586 -1.923,5.828 -1.334,10.133 0.629,4.603 -0.66,8.889 -3.13,10.402 -1.075,0.659 -0.785,-4.255 0.465,-7.886 0.769,-2.233 0.624,-2.404 -0.844,-0.997 -5.794,5.547 -6.614,15.834 -1.801,22.587 0.818,1.148 1.975,2.394 2.223,2.394 0.09,0 0.671,0.463 1.292,1.028 5.361,4.882 15.777,4.059 21.261,-1.68 5.49,-5.746 5.796,-11.702 1.13,-21.98 -2.4,-5.288 -2.856,-7.032 -2.458,-9.409 0.121,-0.726 0.104,-0.792 -0.203,-0.792 -0.648,0 -1.579,1.688 -2.093,3.793 -0.402,1.647 -0.483,1.633 -1.353,-0.241 -0.417,-0.899 -1.398,-2.776 -2.178,-4.171 -2.872,-5.128 -3.632,-8.158 -2.811,-11.214 0.482,-1.798 0.068,-1.814 -1.683,-0.062 m 3.406,22.203 c 1.279,2.972 0.746,5.299 -2.067,9.025 -5.63,7.46 -2.838,12.116 5.972,9.961 3.028,-0.741 3.17,-0.281 0.49,1.59 -2.983,2.081 -5.653,2.766 -7.666,1.966 -0.485,-0.192 -1.017,-0.35 -1.183,-0.35 -0.166,0 -1.082,-0.517 -2.035,-1.148 -4.7,-3.113 -5.465,-7.891 -2.292,-14.308 0.657,-1.329 0.852,-1.364 1.003,-0.178 0.371,2.925 4.023,1.672 5.881,-2.018 0.884,-1.755 1.152,-2.972 1.011,-4.589 -0.135,-1.548 0.207,-1.53 0.886,0.049 m -27.143,21.9 c -0.171,0.207 -0.645,0.762 -1.052,1.235 -1.106,1.283 -1.706,3.983 -1.287,5.787 0.202,0.87 -0.021,1.437 -0.567,1.437 -0.575,0 -0.882,-0.541 -1.041,-1.834 -0.35,-2.838 -1.491,-0.189 -1.4,3.25 0.146,5.532 0.155,5.397 -0.434,6.594 -1.486,3.016 -2.498,1.841 -1.53,-1.775 0.698,-2.605 0.623,-2.751 -0.705,-1.366 -3.745,3.906 -3.503,11.316 0.5,15.315 6.592,6.586 17.917,1.662 17.48,-7.6 -0.093,-1.978 -0.571,-3.537 -2.095,-6.837 -1.223,-2.649 -1.533,-3.665 -1.533,-5.028 0,-1.591 -0.693,-1.347 -1.308,0.461 -0.305,0.897 -0.618,1.132 -0.87,0.653 -1.234,-2.343 -2.452,-4.526 -2.757,-4.939 -0.274,-0.372 -0.463,-1.015 -0.658,-2.24 -0.255,-1.604 -0.251,-2.173 0.023,-3.113 0.083,-0.284 0.041,-0.375 -0.173,-0.375 -0.155,0 -0.422,0.169 -0.593,0.375 m 20.012,11.646 c -1.517,0.175 -3.128,0.576 -3.624,0.901 -0.494,0.324 -0.381,-0.685 -1.895,16.912 -0.738,8.57 -1.41,16.295 -1.494,17.166 -0.708,7.309 -1.267,15.609 -1.073,15.927 0.225,0.368 10.679,3.174 11.347,3.046 0.286,-0.055 0.597,-4.972 0.547,-8.639 -0.003,-0.229 -0.041,-3.439 -0.085,-7.132 l -0.08,-6.715 -0.386,-0.147 c -0.512,-0.195 -3.559,0.077 -5.569,0.496 -0.872,0.182 -1.62,0.297 -1.662,0.255 -0.586,-0.586 3.511,-3.156 5.882,-3.688 0.641,-0.144 1.279,-0.321 1.416,-0.392 0.216,-0.113 0.25,-1.019 0.25,-6.612 v -6.482 l -1.166,-0.053 c -0.642,-0.03 -2.054,0.071 -3.138,0.224 -1.083,0.152 -2.011,0.235 -2.062,0.185 -0.513,-0.513 3.032,-2.702 5.616,-3.467 l 0.75,-0.222 0.044,-5.647 c 0.032,-4.029 -0.01,-5.712 -0.145,-5.875 -0.214,-0.258 -1.474,-0.273 -3.473,-0.041 m -17.77,4.049 c 0.221,1.472 -0.154,2.473 -1.714,4.577 -3.32,4.478 -1.575,7.843 3.419,6.59 1.582,-0.397 1.788,-0.276 0.94,0.551 -3.472,3.385 -9.755,0.634 -9.791,-4.288 -0.01,-1.327 0.614,-3.503 1.246,-4.34 l 0.301,-0.4 0.305,0.537 c 1.103,1.943 3.829,-0.308 4.418,-3.647 0.216,-1.231 0.661,-1.018 0.876,0.42 m -4.277,20.105 c -1.31,0.152 -2.192,0.417 -2.457,0.737 -0.163,0.196 -2.172,22.259 -2.172,23.853 0,0.77 0.185,0.775 3.021,0.079 1.409,-0.346 2.863,-0.696 3.229,-0.778 l 0.667,-0.149 0.048,-1.558 c 0.068,-2.205 -0.176,-2.319 -3.756,-1.759 -1.918,0.3 0.354,-1.577 2.561,-2.116 1.296,-0.316 1.23,-0.077 1.23,-4.484 0,-4.731 0.173,-4.395 -2.174,-4.233 -1.423,0.098 -1.691,0.079 -1.629,-0.116 0.112,-0.354 1.52,-1.25 2.595,-1.652 1.261,-0.472 1.203,-0.273 1.206,-4.112 0.003,-4.232 0.148,-4.005 -2.369,-3.712 m -38.045,18.857 c -7.97,2.051 -7.608,1.842 -5.285,3.044 3.357,1.736 5.902,5.238 6.306,8.675 0.189,1.609 0.135,1.594 3.138,0.853 1.433,-0.353 2.715,-0.752 2.848,-0.885 0.326,-0.326 0.366,-12.862 0.043,-13.185 -0.269,-0.269 0.244,-0.378 -7.05,1.498 m -10.64,5.882 c -0.412,0.412 -0.421,9.752 -0.009,10.163 0.147,0.148 0.39,0.233 0.541,0.19 0.151,-0.043 1.774,-0.462 3.608,-0.93 3.658,-0.934 3.75,-0.986 3.75,-2.167 0,-2.322 -1.31,-4.791 -3.213,-6.054 -1.595,-1.059 -4.161,-1.718 -4.677,-1.202 m 45.89,3.085 c -2.063,0.526 -5.513,1.41 -7.667,1.964 -2.154,0.554 -11.567,2.97 -20.917,5.369 -13.407,3.44 -17.061,4.433 -17.291,4.7 -0.348,0.404 -0.465,48.168 -0.119,48.813 0.219,0.409 49.789,0.519 50.128,0.111 0.18,-0.217 0.25,-15.402 0.216,-46.658 -0.016,-14.062 -0.034,-14.962 -0.309,-15.104 -0.203,-0.105 -1.429,0.139 -4.041,0.805 m -1.534,9.201 c 0.138,0.138 0.2,0.987 0.2,2.738 0,2.801 -0.046,2.94 -1.04,3.15 -0.298,0.063 -2.151,0.482 -4.117,0.93 -4.983,1.137 -4.509,1.368 -4.509,-2.194 0,-3.053 -0.451,-2.685 4.75,-3.872 4.538,-1.036 4.447,-1.021 4.716,-0.752 m 11.645,-0.089 c -0.248,0.248 -0.123,5.354 0.138,5.614 0.136,0.137 1.13,0.452 2.208,0.7 1.078,0.247 3.043,0.7 4.366,1.006 3.055,0.706 2.843,0.895 2.843,-2.538 0,-3.263 0.633,-2.737 -4.778,-3.973 -4.049,-0.924 -4.573,-1.013 -4.777,-0.809 m -27.811,3.756 c 0.287,0.288 0.28,5.361 -0.009,5.595 -0.251,0.205 -8.19,2.041 -8.815,2.039 -0.603,-0.001 -0.643,-0.183 -0.643,-2.899 0,-3.087 -0.407,-2.744 4.667,-3.925 4.837,-1.125 4.536,-1.074 4.8,-0.81 m 43.977,-0.089 c -0.235,0.235 -0.124,5.504 0.121,5.707 0.433,0.359 8.953,2.208 9.207,1.997 0.447,-0.371 0.317,-5.417 -0.147,-5.711 -0.704,-0.445 -8.94,-2.233 -9.181,-1.993 m -60.111,3.719 c 0.374,0.236 0.368,5.207 -0.007,5.582 -0.285,0.285 -8.725,2.283 -9.076,2.148 -0.528,-0.202 -0.634,-4.927 -0.125,-5.542 0.433,-0.524 8.725,-2.494 9.208,-2.188 m 76.161,0.181 c -0.234,0.437 -0.151,5.233 0.095,5.478 0.458,0.457 9.124,2.234 9.355,1.918 0.304,-0.416 0.317,-5.05 0.014,-5.457 -0.143,-0.192 -1.554,-0.592 -4.526,-1.281 -4.929,-1.144 -4.694,-1.113 -4.938,-0.658 m -43.762,4.253 c 0.321,0.837 0.101,5.228 -0.274,5.468 -0.504,0.322 -8.683,2.178 -9.023,2.048 -0.302,-0.116 -0.407,-5.137 -0.117,-5.594 0.152,-0.24 7.836,-2.135 8.789,-2.168 0.337,-0.011 0.56,0.076 0.625,0.246 m 11.546,-0.153 c -0.167,0.167 -0.129,5.269 0.041,5.537 0.083,0.133 1.603,0.58 3.539,1.042 4.973,1.188 5.644,1.328 5.818,1.221 0.35,-0.217 0.191,-5.715 -0.172,-5.909 -0.951,-0.509 -8.965,-2.152 -9.226,-1.891 m -27.653,6.306 c 0.022,1.466 -0.025,2.769 -0.106,2.894 -3.71621,1.12758 -8.61034,2.09207 -9.14512,2.18964 -0.51638,-0.88654 -0.53711,-3.39922 -0.14988,-5.57664 0.249,-0.34 7.82546,-2.12351 8.859,-2.201 l 0.5,0.027 0.042,2.667 m 43.819,-2.639 c -0.061,0.061 -0.113,0.942 -0.115,1.958 -0.002,1.016 -0.078,2.169 -0.169,2.562 -0.242,1.049 -0.054,1.269 1.288,1.515 0.624,0.114 2.703,0.578 4.619,1.03 2.404,0.568 3.546,0.771 3.685,0.655 0.418,-0.346 0.478,-5.022 0.074,-5.676 -0.241,-0.39 -9.105,-2.321 -9.382,-2.044 m -59.94,3.983 c 0.242,0.635 0.202,4.569 -0.051,5.069 -0.191,0.376 -0.575,0.498 -4.289,1.366 -4.617,1.079 -4.909,1.115 -5.17,0.626 -0.24,-0.448 -0.15,-5.067 0.103,-5.319 0.183,-0.183 8.167,-2.121 8.865,-2.153 0.263,-0.011 0.43,0.115 0.542,0.411 m 76.002,-0.105 c -0.316,0.591 -0.22,4.917 0.119,5.325 0.232,0.278 1.134,0.541 4.375,1.275 2.246,0.508 4.207,0.961 4.357,1.007 0.665,0.199 0.81,-0.321 0.81,-2.91 0,-3.226 0.414,-2.867 -4.669,-4.043 -4.746,-1.098 -4.754,-1.099 -4.992,-0.654"
       stroke="none"
       fill="#fb9b05"
       fill-rule="evenodd"
       sodipodi:nodetypes="ccccscccccccsccccsccccccccccsccccsccccsccccccccscccccsccccccccscscsccsccccsccccccccccccccccscccsscscccccccccsscccscscccscsccccccsscsccccccscccccsccccccccsccccccsccccccccccccccccccccccsccccccccsccccccccssc" />
  </g>
</svg>
